<svg width="738" height="738" viewBox="0 0 738 738" fill="none" xmlns="http://www.w3.org/2000/svg">
<circle cx="369" cy="369" r="337" fill="#479155"/>
<circle cx="371" cy="369" r="292" fill="#D9D9D9"/>
<ellipse cx="428.5" cy="369" rx="242.5" ry="242" fill="#479155"/>
<path d="M428.489 187.271C431.483 178.057 444.517 178.057 447.511 187.271L483.127 296.888C484.466 301.008 488.306 303.797 492.638 303.797L607.896 303.797C617.583 303.797 621.611 316.194 613.774 321.888L520.528 389.635C517.023 392.181 515.557 396.695 516.895 400.815L552.512 510.432C555.506 519.645 544.961 527.306 537.124 521.612L443.878 453.865C440.373 451.319 435.627 451.319 432.122 453.865L338.876 521.612C331.039 527.306 320.494 519.645 323.488 510.432L359.105 400.815C360.443 396.695 358.977 392.181 355.472 389.635L262.226 321.888C254.389 316.194 258.417 303.797 268.104 303.797L383.362 303.797C387.694 303.797 391.534 301.008 392.873 296.888L428.489 187.271Z" fill="#F7DD72"/>
<path d="M294.669 331.091H317.091L336.111 377.47H336.989L356.009 331.091H378.43V406H360.8V359.987H360.178L342.183 405.525H330.917L312.921 359.73H312.299V406H294.669V331.091ZM405.927 406H386.468L411.742 331.091H435.846L461.121 406H441.662L424.069 349.964H423.483L405.927 406ZM403.33 376.519H444.003V390.272H403.33V376.519ZM507.363 353.549C507.119 350.867 506.034 348.782 504.108 347.294C502.206 345.783 499.487 345.027 495.951 345.027C493.61 345.027 491.659 345.331 490.099 345.941C488.538 346.551 487.368 347.392 486.587 348.465C485.807 349.513 485.405 350.72 485.38 352.086C485.332 353.208 485.551 354.195 486.039 355.049C486.551 355.902 487.282 356.658 488.233 357.316C489.209 357.95 490.379 358.511 491.745 358.999C493.11 359.487 494.646 359.913 496.353 360.279L502.791 361.742C506.497 362.547 509.765 363.62 512.593 364.961C515.446 366.302 517.836 367.899 519.762 369.752C521.713 371.606 523.188 373.739 524.188 376.153C525.188 378.567 525.7 381.274 525.724 384.273C525.7 389.004 524.505 393.064 522.14 396.453C519.775 399.843 516.373 402.44 511.935 404.244C507.521 406.049 502.193 406.951 495.951 406.951C489.684 406.951 484.222 406.012 479.565 404.135C474.907 402.257 471.286 399.404 468.701 395.576C466.117 391.747 464.788 386.907 464.714 381.055H482.052C482.198 383.469 482.844 385.48 483.99 387.09C485.136 388.699 486.709 389.918 488.709 390.748C490.733 391.577 493.074 391.991 495.732 391.991C498.17 391.991 500.243 391.662 501.95 391.004C503.681 390.345 505.01 389.431 505.936 388.26C506.863 387.09 507.339 385.749 507.363 384.237C507.339 382.823 506.9 381.616 506.046 380.616C505.193 379.592 503.876 378.714 502.096 377.982C500.34 377.226 498.097 376.531 495.366 375.897L487.538 374.069C481.052 372.581 475.944 370.179 472.213 366.863C468.482 363.522 466.629 359.011 466.653 353.33C466.629 348.696 467.872 344.636 470.384 341.15C472.895 337.663 476.37 334.944 480.808 332.993C485.246 331.042 490.306 330.067 495.988 330.067C501.791 330.067 506.826 331.054 511.094 333.029C515.385 334.98 518.714 337.723 521.079 341.259C523.444 344.795 524.652 348.892 524.7 353.549H507.363ZM548.759 406H529.3L554.574 331.091H578.678L603.953 406H584.494L566.901 349.964H566.315L548.759 406ZM546.162 376.519H586.835V390.272H546.162V376.519Z" fill="white"/>
</svg>
